<?xml version="1.0" encoding="UTF-8"?><svg id="a" xmlns="http://www.w3.org/2000/svg" viewBox="0 0 173.76 40"><defs><style>.b{fill:#00efe9;}.c{fill:#00bdff;}.d{fill:#1560fa;}.e{fill:#157eff;}.f{fill:rgba(21,126,255,.5);}</style></defs><path class="e" d="M20.42,.08c5.65,.42,10.23,4.75,10.97,10.37s-2.58,10.98-7.94,12.84l11.98,16.07H.04V0H18.63c.65,0,1.24,.03,1.79,.08Z"/><polygon class="e" points="23.07 39.35 0 39.35 0 0 35.18 39.35 23.07 39.35"/><polygon class="c" points="35.43 39.35 0 39.35 17.59 11.87 35.43 39.35"/><polygon class="d" points="0 22.78 0 0 9.89 0 24.66 22.77 0 22.78"/><polygon class="b" points="10.62 22.78 17.59 11.87 24.67 22.78 10.62 22.78"/><polygon class="f" points="35.43 39.35 22.26 39.35 17.59 11.87 35.43 39.35"/><path d="M53.46,13.29v5.41h3.16c2.45,0,3.57-1.22,3.54-2.74-.04-1.52-1.22-2.67-3.54-2.67h-3.16Zm3.24-4.05c4.66,0,7.72,2.82,7.72,6.72s-2.11,6.02-4.49,6.51l4.9,8.85h-4.9l-4.53-8.29h-1.95v8.29h-4.41V9.28l7.65-.05Zm14.55,12.94h6.78c-.15-1.76-1.62-3.11-3.39-3.11s-3.24,1.35-3.39,3.11m10.92,1.42c0,.46-.02,.92-.07,1.38h-10.86c.23,1.95,1.96,3.38,3.92,3.23,1.42-.03,2.78-.55,3.87-1.47l2.45,2.66c-1.8,1.58-4.13,2.41-6.52,2.31-2.15,.12-4.25-.69-5.77-2.22s-2.31-3.63-2.19-5.78c0-4.81,3.16-8.09,7.75-8.09s7.43,3.27,7.44,8.03m7.5,.02c-.12,1.48,.61,2.9,1.88,3.68,1.27,.78,2.86,.78,4.13,0,1.27-.78,1.99-2.2,1.88-3.68,.12-1.48-.61-2.9-1.88-3.68-1.27-.78-2.86-.78-4.13,0-1.27,.78-1.99,2.2-1.88,3.68m12.12,0c0,4.59-3.19,8.04-7.42,8.04-1.74,.08-3.42-.65-4.54-1.98v7.91h-4.06V16.05h4.06v1.69c1.1-1.38,2.8-2.16,4.57-2.09,4.24,0,7.43,3.45,7.43,8.04m17.59,1.11c0,4.82-3.42,6.92-7.23,6.92s-7.26-2.08-7.26-6.92v-8.75h4.13v8.41c0,2.45,1.35,3.44,3.13,3.44s3.13-.99,3.13-3.44v-8.41h4.11v8.75Zm7.98-1.14c-.12,1.48,.61,2.9,1.88,3.68,1.27,.78,2.86,.78,4.13,0,1.27-.78,1.99-2.2,1.88-3.68,.12-1.48-.61-2.9-1.88-3.68-1.27-.78-2.86-.78-4.13,0-1.27,.78-1.99,2.2-1.88,3.68m12.12,0c0,4.59-3.19,8.04-7.42,8.04-1.77,.07-3.48-.7-4.59-2.08v1.69h-4.03V8.6h4.11v9.02c1.1-1.33,2.76-2.08,4.49-2.01,4.24,0,7.43,3.45,7.43,8.04"/><polygon points="142.92 31.32 147.04 31.32 147.04 8.6 142.92 8.6 142.92 31.32"/><path d="M151.37,31.32h4.13v-15.26h-4.13v15.26Zm4.68-20.29c-.01,1.45-1.2,2.61-2.64,2.61-1.45,0-2.62-1.18-2.62-2.63,0-1.45,1.17-2.62,2.62-2.63,.71,0,1.38,.27,1.88,.77s.77,1.18,.76,1.88Zm17.11,7.48l-2.97,2.45c-.8-.94-1.98-1.49-3.22-1.49-1.08,.01-2.11,.47-2.83,1.27-.73,.8-1.09,1.86-1.01,2.94-.09,1.08,.27,2.14,1,2.94s1.75,1.26,2.84,1.27c1.28-.02,2.49-.58,3.33-1.54l2.94,2.45c-1.47,1.87-3.74,2.94-6.12,2.88-2.18,.11-4.3-.7-5.85-2.23-1.55-1.53-2.39-3.64-2.3-5.82-.08-2.18,.76-4.28,2.31-5.81,1.55-1.53,3.67-2.34,5.84-2.23,2.38-.07,4.66,1.01,6.12,2.89"/></svg>