<svg width="361" height="56" viewBox="0 0 361 56" fill="none" xmlns="http://www.w3.org/2000/svg">
<g clip-path="url(#clip0_1526_6166)">
<path d="M19.517 44.5267C10.5294 44.5267 3.21582 37.0975 3.21582 27.9679C3.21582 18.8385 10.5294 11.4093 19.517 11.4093C28.5045 11.4093 35.8181 18.8385 35.8181 27.9679C35.8181 37.0975 28.5045 44.5267 19.517 44.5267ZM19.517 18.6434C14.4592 18.6434 10.3435 22.8242 10.3435 27.9619C10.3435 33.0995 14.4592 37.2803 19.517 37.2803C24.5748 37.2803 28.6905 33.0995 28.6905 27.9619C28.6905 22.8242 24.5748 18.6434 19.517 18.6434Z" fill="white"/>
<path d="M19.517 55.9289C12.1674 55.9289 5.23773 53.0463 0 47.8051L5.00374 42.643C8.89754 46.5373 14.0513 48.6827 19.517 48.6827C24.9828 48.6827 30.2385 46.4947 34.1443 42.5272L39.184 47.6465C33.9283 52.9855 26.9446 55.9229 19.517 55.9229V55.9289Z" fill="white"/>
<path d="M34.1443 13.3957C30.2385 9.42816 25.0426 7.24024 19.517 7.24024C13.9913 7.24024 8.89754 9.3855 5.00374 13.2799L0 8.12394C5.23773 2.88269 12.1674 0 19.517 0C26.8667 0 33.9342 2.93753 39.184 8.2763L34.1443 13.3957Z" fill="white"/>
<path d="M117.259 29.2347C117.259 30.9717 117.355 32.3796 117.547 33.4643C117.739 34.5491 118.087 35.4025 118.591 36.0119C119.095 36.6213 119.785 37.0357 120.667 37.2551C121.543 37.4744 122.665 37.5841 124.039 37.5841H126.961C127.993 37.5841 129.271 37.5598 130.783 37.5111L130.099 40.9544C128.803 41.0032 127.597 41.0276 126.493 41.0276H124.039C121.969 41.0276 120.247 40.8144 118.867 40.3876C117.487 39.961 116.377 39.2846 115.55 38.3583C114.722 37.4318 114.14 36.2129 113.804 34.7136C113.468 33.2144 113.3 31.3861 113.3 29.2409V26.5655C113.3 24.3166 113.486 22.4456 113.858 20.9463C114.23 19.4471 114.835 18.2342 115.681 17.3201C116.521 16.4059 117.619 15.7599 118.981 15.382C120.343 15.0042 122.017 14.8152 124.009 14.8152H126.859C127.891 14.8152 129.133 14.8396 130.573 14.8884L129.889 18.3318C129.529 18.3318 129.097 18.3318 128.593 18.3135C128.089 18.3013 127.567 18.2891 127.027 18.2769C126.487 18.2647 125.953 18.2586 125.425 18.2586H123.949C122.557 18.2586 121.423 18.3561 120.559 18.5512C119.695 18.7462 119.017 19.1423 118.519 19.7396C118.027 20.3369 117.697 21.1779 117.529 22.2687C117.361 23.3536 117.277 24.792 117.277 26.5714V29.2469L117.259 29.2347Z" fill="white"/>
<path d="M154.829 14.8757V40.954H151.044V29.344H138.246V40.954H134.461V14.8757H138.246V25.9006H151.044V14.8757H154.829Z" fill="white"/>
<path d="M175.018 33.482H164.453L161.783 40.954H157.961L167.771 14.8757H171.953L181.762 40.954H177.724L175.018 33.482ZM165.605 30.185H173.824L169.715 18.7579L165.605 30.185Z" fill="white"/>
<path d="M188.686 40.954H184.9V14.8757H194.566C197.571 14.8757 199.791 15.4486 201.236 16.5943C202.677 17.7401 203.403 19.6232 203.403 22.2316V23.4018C203.403 25.3825 202.989 26.9366 202.16 28.0701C201.333 29.2038 200.05 29.9778 198.322 30.3983L204.597 40.9478H200.198L194.427 30.7639H188.698V40.9478L188.686 40.954ZM199.611 22.7132C199.611 21.7867 199.527 21.0371 199.36 20.4582C199.191 19.8792 198.915 19.4403 198.531 19.1235C198.147 18.8066 197.632 18.5933 196.984 18.4836C196.335 18.3739 195.531 18.3191 194.566 18.3191H188.692V27.3267H194.566C195.526 27.3267 196.335 27.2718 196.984 27.1621C197.632 27.0524 198.147 26.8331 198.531 26.5038C198.915 26.1748 199.191 25.7239 199.36 25.151C199.527 24.578 199.611 23.8284 199.611 22.8959V22.7132Z" fill="white"/>
<path d="M223.261 33.482H212.695L210.026 40.954H206.205L216.014 14.8757H220.197L230.006 40.954H225.968L223.261 33.482ZM213.847 30.185H222.067L217.957 18.7579L213.847 30.185Z" fill="white"/>
<path d="M347.069 33.4754H336.504L333.835 40.9472H330.014L339.823 14.869H344.005L353.814 40.9472H349.776L347.069 33.4754ZM337.656 30.1784H345.876L341.766 18.7511L337.656 30.1784Z" fill="white"/>
<path d="M235.597 29.2347C235.597 30.9717 235.694 32.3796 235.886 33.4643C236.078 34.5491 236.426 35.4025 236.929 36.0119C237.433 36.6213 238.123 37.0357 239.005 37.2551C239.882 37.4744 241.003 37.5841 242.376 37.5841H245.298C246.33 37.5841 247.609 37.5598 249.12 37.5111L248.436 40.9544C247.14 41.0032 245.934 41.0276 244.83 41.0276H242.376C240.307 41.0276 238.585 40.8144 237.205 40.3876C235.825 39.961 234.715 39.2846 233.888 38.3583C233.059 37.4318 232.477 36.2129 232.141 34.7136C231.804 33.2144 231.637 31.3861 231.637 29.2409V26.5655C231.637 24.3166 231.823 22.4456 232.196 20.9463C232.567 19.4471 233.173 18.2342 234.019 17.3201C234.859 16.4059 235.956 15.7599 237.319 15.382C238.68 15.0042 240.355 14.8152 242.347 14.8152H245.197C246.229 14.8152 247.47 14.8396 248.909 14.8884L248.227 18.3318C247.866 18.3318 247.434 18.3318 246.931 18.3135C246.427 18.3013 245.904 18.2891 245.364 18.2769C244.824 18.2647 244.29 18.2586 243.762 18.2586H242.286C240.895 18.2586 239.76 18.3561 238.897 18.5512C238.032 18.7462 237.355 19.1423 236.857 19.7396C236.365 20.3369 236.034 21.1779 235.867 22.2687C235.699 23.3536 235.616 24.792 235.616 26.5714V29.2469L235.597 29.2347Z" fill="white"/>
<path d="M272.951 14.8757L272.267 18.3191H263.724V40.954H259.937V18.3191H250.926L251.611 14.8757H272.957H272.951Z" fill="white"/>
<path d="M360.871 40.954H357.084V14.8757H360.871V40.954Z" fill="white"/>
<path d="M293.86 14.8757L293.176 18.3191H280.05V25.8274H292.954L292.269 29.2708H280.05V37.5105H293.86L293.176 40.954H276.263V14.8757H293.86Z" fill="white"/>
<path d="M301.791 40.954H298.007V14.8757H307.671C310.677 14.8757 312.897 15.4486 314.344 16.5943C315.783 17.7401 316.509 19.6232 316.509 22.2316V23.4018C316.509 25.3825 316.095 26.9366 315.268 28.0701C314.439 29.2038 313.156 29.9778 311.428 30.3983L317.703 40.9478H313.306L307.533 30.7639H301.803V40.9478L301.791 40.954ZM312.717 22.7132C312.717 21.7867 312.633 21.0371 312.466 20.4582C312.296 19.8792 312.021 19.4403 311.637 19.1235C311.253 18.8066 310.738 18.5933 310.089 18.4836C309.441 18.3739 308.637 18.3191 307.671 18.3191H301.797V27.3267H307.671C308.631 27.3267 309.441 27.2718 310.089 27.1621C310.738 27.0524 311.253 26.8331 311.637 26.5038C312.021 26.1748 312.296 25.7239 312.466 25.151C312.633 24.578 312.717 23.8284 312.717 22.8959V22.7132Z" fill="white"/>
<path d="M59.0827 40.9476H53.228V14.869H61.5554C63.9069 20.5329 65.5433 24.7439 66.4645 27.502C67.1434 25.3595 68.6465 21.1485 70.9737 14.869H79.1556V40.9476H73.192C73.192 30.1616 73.2283 23.6727 73.3011 21.481C72.1858 24.8792 70.5494 29.4965 68.3917 35.3329H64.1373L58.9736 21.5179C59.0462 23.6849 59.0827 30.1616 59.0827 40.9476Z" fill="white"/>
<path d="M96.592 40.9476H90.6281V30.3093L81.61 14.869H88.8826C91.1131 18.8583 92.7495 21.9858 93.7918 24.2513C95.2464 21.4194 96.9435 18.2919 98.8829 14.869H105.574L96.592 30.1616V40.9476Z" fill="white"/>
<path d="M327.149 38.2096C327.149 40.0319 326.24 40.943 324.421 40.943C322.701 40.943 321.839 40.0319 321.839 38.2096C321.839 37.2246 322.083 36.5105 322.567 36.0671C323.075 35.5992 323.731 35.3654 324.531 35.3654C326.276 35.3654 327.149 36.3133 327.149 38.2096Z" fill="white"/>
</g>
<defs>
<clipPath id="clip0_1526_6166">
<rect width="361" height="56" fill="white"/>
</clipPath>
</defs>
</svg>
