<svg width="118" height="1441" viewBox="0 0 118 1441" fill="none" xmlns="http://www.w3.org/2000/svg">
<mask id="mask0_2205_6370" style="mask-type:luminance" maskUnits="userSpaceOnUse" x="0" y="0" width="118" height="1441">
<path d="M117.5 1440.5L117.5 0.5L0.5 0.499995L0.499937 1440.5L117.5 1440.5Z" fill="white"/>
</mask>
<g mask="url(#mask0_2205_6370)">
<mask id="mask1_2205_6370" style="mask-type:alpha" maskUnits="userSpaceOnUse" x="18" y="-750" width="104" height="2208">
<path d="M81.4999 1452.79C74.2827 1435.68 67.0432 1413.68 59.9935 1392.15C53.7364 1373.04 44.6326 1338.18 42.0037 1281.66C39.8268 1234.82 48.1882 1197.62 51.6266 1175.75C57.3646 1139.26 65.0172 1091.44 66.3959 1027.7C67.4843 977.27 63.0803 934.517 58.9889 903.006C54.0212 864.766 48.1436 830.24 44.0969 786.521C41.1609 754.81 39.425 714.705 39.9106 672.534C40.3906 630.947 43.0699 592.157 44.6439 553.435C46.9212 497.341 48.7967 432.869 53.77 388.367C57.4149 355.74 62.7733 339.135 67.5569 322.414C76.4206 291.419 76.3146 220.435 72.9823 157.097C68.5951 73.7386 59.8653 27.8542 50.0414 -10.7354" stroke="url(#paint0_linear_2205_6370)" stroke-miterlimit="10"/>
<path d="M72.3349 1457.5C64.8107 1439.51 57.2754 1412.08 50.5327 1378.67C44.0635 1346.61 34.5075 1300.08 31.8674 1236.41C29.8077 1186.67 35.4843 1149.1 39.5478 1122.64C44.8895 1087.79 52.8714 1048.24 53.4296 984.799C53.837 938.948 50.1085 900.442 46.5529 869.513C43.0476 839.001 40.5526 808.106 37.9012 772.148C35.2499 736.174 30.6338 693.654 30.1706 649.418C29.7352 607.614 33.5754 579.917 36.8686 555.101C39.3916 536.048 42.2773 518.194 44.616 496.892C46.899 476.123 48.5679 450.708 50.4322 427.324C53.6361 387.136 57.4763 355.641 61.6124 322.731C67.1215 278.829 68.5729 205.13 66.6081 147.104C63.9456 68.3432 53.6753 22.2589 45.392 -12.5" stroke="url(#paint1_linear_2205_6370)" stroke-width="2" stroke-miterlimit="10"/>
<mask id="mask2_2205_6370" style="mask-type:alpha" maskUnits="userSpaceOnUse" x="18" y="603" width="97" height="1399">
<path d="M40.4725 2000.5C61.2037 1967.06 84.4582 1923.29 90.8347 1852.82C96.1686 1793.85 91.4995 1730.73 81.7082 1676.95C74.8482 1639.35 65.767 1606.67 57.396 1571.64C47.4535 1530.05 44.643 1482.43 42.7694 1433.04C40.9562 1385.54 35.3654 1343.71 28.5205 1300.61C21.3281 1255.27 14.664 1208.83 24.3199 1166.19C33.4766 1125.78 51.7448 1102.98 65.7972 1075.35C72.7026 1061.78 84.3223 1039.61 83.1286 1011.3C81.9349 982.795 71.2822 965.145 64.6338 947.304C52.8781 915.769 47.0304 880.024 46.5771 834.302C45.5496 731.435 81.8593 634.018 113.5 604.5" stroke="url(#paint2_linear_2205_6370)" stroke-width="2" stroke-miterlimit="10"/>
</mask>
<g mask="url(#mask2_2205_6370)">
<path d="M157.5 1442.5L157.5 697.5L-15.5 697.5L-15.5 1442.5L157.5 1442.5Z" fill="url(#paint3_linear_2205_6370)"/>
</g>
<path d="M64.2872 701C80.3869 666.456 98.4462 621.246 103.398 548.451C107.541 487.535 103.915 422.338 96.3105 366.79C90.9831 327.946 83.9307 294.19 77.4298 258.006C69.7085 215.044 67.5259 165.862 66.0708 114.843C64.6627 65.7762 60.3209 22.5681 55.0049 -21.9529C49.4199 -68.7876 44.2449 -116.755 51.7429 -160.8C58.8541 -202.548 73.0411 -226.096 83.9541 -254.633C89.3168 -268.647 98.3407 -291.557 97.4137 -320.799C96.4867 -350.239 88.2138 -368.471 83.0506 -386.9C73.9212 -419.474 69.3799 -456.397 69.0279 -503.626C68.2299 -609.882 96.428 -710.51 121 -741" stroke="url(#paint4_linear_2205_6370)" stroke-width="2" stroke-miterlimit="10"/>
<path d="M94 -749C82.5884 -730.487 71.16 -702.253 60.9335 -667.866C51.122 -634.868 36.6292 -586.972 32.6245 -521.438C29.5007 -470.252 38.1101 -431.579 44.2733 -404.34C52.3749 -368.479 64.4806 -327.766 65.3271 -262.472C65.9451 -215.279 60.2902 -175.647 54.8976 -143.814C49.5812 -112.409 45.7971 -80.6106 41.776 -43.6007C37.7547 -6.57368 30.7541 37.1902 30.0515 82.7198C29.3911 125.747 35.2151 154.254 40.2098 179.796C44.0363 199.406 48.4129 217.783 51.96 239.708C55.4225 261.084 57.9536 287.243 60.7811 311.31C65.6404 352.674 71.4647 385.09 77.7376 418.963C86.0931 464.15 88.2942 540.004 85.3143 599.727C81.2762 680.792 65.6996 728.224 53.1367 764" stroke="url(#paint5_linear_2205_6370)" stroke-width="2" stroke-miterlimit="10"/>
</mask>
<g mask="url(#mask1_2205_6370)">
<path d="M117.5 1440.5L117.5 0.5L-6.5 0.499995L-6.50006 1440.5L117.5 1440.5Z" fill="url(#paint6_linear_2205_6370)"/>
</g>
</g>
<defs>
<linearGradient id="paint0_linear_2205_6370" x1="49.3" y1="1232.98" x2="-458.163" y2="752.514" gradientUnits="userSpaceOnUse">
<stop stop-color="#2E90FA"/>
<stop offset="1" stop-color="#3271DD"/>
</linearGradient>
<linearGradient id="paint1_linear_2205_6370" x1="39.7271" y1="1236.72" x2="-470.193" y2="749.968" gradientUnits="userSpaceOnUse">
<stop stop-color="#2E90FA"/>
<stop offset="1" stop-color="#3271DD"/>
</linearGradient>
<linearGradient id="paint2_linear_2205_6370" x1="40.8636" y1="814.165" x2="-320.14" y2="1622.49" gradientUnits="userSpaceOnUse">
<stop stop-color="#2E90FA"/>
<stop offset="1" stop-color="#3271DD"/>
</linearGradient>
<linearGradient id="paint3_linear_2205_6370" x1="23.8182" y1="1330.61" x2="-42.084" y2="821.726" gradientUnits="userSpaceOnUse">
<stop stop-color="#2E90FA"/>
<stop offset="1" stop-color="#3271DD"/>
</linearGradient>
<linearGradient id="paint4_linear_2205_6370" x1="64.5908" y1="-524.426" x2="-375.156" y2="215.844" gradientUnits="userSpaceOnUse">
<stop stop-color="#2E90FA"/>
<stop offset="1" stop-color="#3271DD"/>
</linearGradient>
<linearGradient id="paint5_linear_2205_6370" x1="44.5453" y1="-521.762" x2="-451.695" y2="176.251" gradientUnits="userSpaceOnUse">
<stop stop-color="#2E90FA"/>
<stop offset="1" stop-color="#3271DD"/>
</linearGradient>
<linearGradient id="paint6_linear_2205_6370" x1="21.6817" y1="1224.23" x2="-289.618" y2="332.835" gradientUnits="userSpaceOnUse">
<stop stop-color="#2E90FA"/>
<stop offset="1" stop-color="#3271DD"/>
</linearGradient>
</defs>
</svg>
