<svg width="1923" height="103" viewBox="0 0 1923 103" fill="none" xmlns="http://www.w3.org/2000/svg">
<path d="M3.30469 83.6434C49.0956 69.1616 109.026 52.9171 205.524 48.4628C286.273 44.7368 372.699 47.9983 446.335 54.8381C497.825 59.6302 542.572 65.9739 590.538 71.8215C647.489 78.7669 712.684 80.7302 780.315 82.039C845.358 83.3056 902.634 87.2111 961.651 91.9926C1023.74 97.0169 1087.32 101.672 1145.71 94.927C1201.05 88.5305 1232.26 75.7692 1270.09 65.9528C1288.67 61.1291 1319.04 53.0121 1357.8 53.8459C1396.83 54.6798 1421 62.1212 1445.43 66.7656C1488.61 74.9775 1537.55 79.0624 1600.16 79.3791C1741.01 80.0968 1874.4 54.7326 1914.82 32.6299" stroke="url(#paint0_linear_1183_18733)" stroke-width="4" stroke-miterlimit="10"/>
<path d="M1914.84 2C1892.5 15.6479 1863.77 29.3381 1835.64 42.6694C1810.69 54.5018 1765.16 71.7174 1691.33 76.6889C1630.16 80.8055 1581.56 64.9937 1553 58.4917C1505.33 47.6409 1442.88 33.1697 1359.63 30.5625C1293.76 28.5042 1237.92 36.8323 1196.76 44.5693C1146.82 53.9635 1101.72 65.0782 1044.62 72.7307C1003.2 78.2828 950.818 81.5655 895.739 80.6472C841.42 79.7394 790.757 74.6729 740.18 71.6963C666.914 67.3898 582.707 63.8432 524.582 54.4385C481.967 47.5459 460.279 37.4129 438.438 28.367C397.955 11.6053 305.242 11.8058 222.514 18.1073C113.638 26.4037 53.7074 42.9121 3.30469 61.4894" stroke="url(#paint1_linear_1183_18733)" stroke-width="4" stroke-miterlimit="10"/>
<path d="M1921 19.332C1897.51 33.5605 1861.68 47.8101 1818.04 60.5608C1776.17 72.7944 1715.39 90.865 1632.22 95.8576C1567.27 99.7525 1518.19 89.0178 1483.63 81.3336C1438.12 71.2322 1386.45 56.1382 1303.59 55.0827C1243.71 54.3121 1193.41 61.363 1153.02 68.0867C1113.17 74.7154 1072.81 79.4336 1025.85 84.4474C978.859 89.4611 923.323 98.1903 865.546 99.0664C810.945 99.8897 774.769 92.6277 742.356 86.4001C717.47 81.6291 694.151 76.172 666.328 71.7494C639.202 67.4323 606.006 64.2763 575.464 60.7508C522.973 54.6921 481.837 47.4301 438.853 39.6087C381.511 29.1906 285.252 26.4463 209.463 30.1617C106.591 35.1966 46.3994 54.6182 1 70.2822" stroke="url(#paint2_linear_1183_18733)" stroke-width="4" stroke-miterlimit="10"/>
<path d="M1914.84 81.6192C1869.01 67.1374 1809.01 50.8506 1712.62 46.4385C1641.62 43.1875 1539.29 44.053 1483.52 53.9644C1441.58 61.4164 1407.38 69.0795 1354.21 74.4627C1294.89 80.4687 1226.85 83.9836 1167.46 89.5039C1125.87 93.3777 1084.17 98.4759 1034.68 99.1726C979.228 99.9642 923.648 95.816 876.704 91.5094C781.751 82.8014 711.966 55.7588 591.713 59.3793C509.789 61.8492 453.731 74.811 401.436 85.7252C367.718 92.755 321.187 103.5 259.799 99.447C180.377 94.201 125.124 77.3549 87.8167 65.1635C54.5992 54.3022 23.7747 42.3642 3.30469 30.6162" stroke="url(#paint3_linear_1183_18733)" stroke-width="4" stroke-miterlimit="10"/>
<defs>
<linearGradient id="paint0_linear_1183_18733" x1="1627.73" y1="83.3703" x2="876.144" y2="741.331" gradientUnits="userSpaceOnUse">
<stop stop-color="#2E90FA"/>
<stop offset="1" stop-color="#3271DD"/>
</linearGradient>
<linearGradient id="paint1_linear_1183_18733" x1="1627.75" y1="62.8912" x2="761.266" y2="694.99" gradientUnits="userSpaceOnUse">
<stop stop-color="#2E90FA"/>
<stop offset="1" stop-color="#3271DD"/>
</linearGradient>
<linearGradient id="paint2_linear_1183_18733" x1="1632.64" y1="80.9945" x2="757.39" y2="714.291" gradientUnits="userSpaceOnUse">
<stop stop-color="#2E90FA"/>
<stop offset="1" stop-color="#3271DD"/>
</linearGradient>
<linearGradient id="paint3_linear_1183_18733" x1="1627.75" y1="84.4895" x2="837.44" y2="736.122" gradientUnits="userSpaceOnUse">
<stop stop-color="#2E90FA"/>
<stop offset="1" stop-color="#3271DD"/>
</linearGradient>
</defs>
</svg>
