<svg width="30" height="29" viewBox="0 0 30 29" fill="none" xmlns="http://www.w3.org/2000/svg">
<rect x="0.555054" width="28.7053" height="28.7053" rx="7" fill="url(#paint0_linear_1390_133)"/>
<path d="M20.9757 10.52C19.8748 9.56 18.5537 9.08 17.1592 9L16.939 9.24C18.1868 9.56 19.2877 10.2 20.3152 11.08C19.0675 10.36 17.673 9.88 16.2051 9.72C15.7647 9.64 15.3978 9.64 14.9574 9.64C14.517 9.64 14.1501 9.64 13.7097 9.72C12.2418 9.88 10.8473 10.36 9.5996 11.08C10.6271 10.2 11.728 9.56 12.9757 9.24L12.7556 9C11.3611 9.08 10.04 9.56 8.93905 10.52C7.69134 13.08 7.03079 15.96 6.9574 18.92C8.05831 20.2 9.5996 21 11.2143 21C11.2143 21 11.728 20.36 12.095 19.8C11.1409 19.56 10.2601 19 9.67299 18.12C10.1868 18.44 10.7005 18.76 11.2143 19C11.8748 19.32 12.5354 19.48 13.1959 19.64C13.7831 19.72 14.3702 19.8 14.9574 19.8C15.5446 19.8 16.1317 19.72 16.7189 19.64C17.3794 19.48 18.04 19.32 18.7005 19C19.2143 18.76 19.728 18.44 20.2418 18.12C19.6546 19 18.7739 19.56 17.8198 19.8C18.1868 20.36 18.7005 21 18.7005 21C20.3152 21 21.8565 20.2 22.9574 18.92C22.884 15.96 22.2235 13.08 20.9757 10.52ZM12.5354 17.48C11.8014 17.48 11.1409 16.76 11.1409 15.88C11.1409 15 11.8014 14.28 12.5354 14.28C13.2693 14.28 13.9299 15 13.9299 15.88C13.9299 16.76 13.2693 17.48 12.5354 17.48ZM17.3794 17.48C16.6455 17.48 15.9849 16.76 15.9849 15.88C15.9849 15 16.6455 14.28 17.3794 14.28C18.1134 14.28 18.7739 15 18.7739 15.88C18.7739 16.76 18.1134 17.48 17.3794 17.48Z" fill="white"/>
<defs>
<linearGradient id="paint0_linear_1390_133" x1="24.9491" y1="22.1813" x2="5.03074" y2="22.7803" gradientUnits="userSpaceOnUse">
<stop stop-color="#2E90FA"/>
<stop offset="1" stop-color="#3271DD"/>
</linearGradient>
</defs>
</svg>
