<svg width="30" height="30" viewBox="0 0 30 30" fill="none" xmlns="http://www.w3.org/2000/svg">
<rect x="0.174988" width="29.3801" height="29.3801" rx="7" fill="url(#paint0_linear_1390_130)"/>
<path fill-rule="evenodd" clip-rule="evenodd" d="M18.9767 7.90951C18.964 7.98984 18.9575 8.07226 18.9575 8.15626C18.9575 9.00432 19.629 9.69182 20.4575 9.69182C21.2859 9.69182 21.9575 9.00432 21.9575 8.15626C21.9575 7.30819 21.2859 6.6207 20.4575 6.6207C20.0883 6.6207 19.7503 6.7572 19.489 6.98359L15.5937 6L14.1858 11.7651C12.3128 11.8913 10.6284 12.4719 9.35776 13.3485C8.99698 12.9863 8.5027 12.7629 7.95746 12.7629C6.85289 12.7629 5.95746 13.6796 5.95746 14.8103C5.95746 15.5973 6.39112 16.2805 7.02713 16.6232C6.98118 16.8674 6.95746 17.1166 6.95746 17.3696C6.95746 20.4792 10.5392 23 14.9575 23C19.3757 23 22.9575 20.4792 22.9575 17.3696C22.9575 17.1166 22.9337 16.8674 22.8878 16.6232C23.5238 16.2805 23.9575 15.5973 23.9575 14.8103C23.9575 13.6796 23.062 12.7629 21.9575 12.7629C21.4122 12.7629 20.9179 12.9863 20.5572 13.3485C19.1728 12.3935 17.2974 11.7897 15.2221 11.7423L16.3213 7.24143L18.9767 7.90951ZM11.4575 17.8815C12.2859 17.8815 12.9575 17.194 12.9575 16.3459C12.9575 15.4978 12.2859 14.8103 11.4575 14.8103C10.629 14.8103 9.95746 15.4978 9.95746 16.3459C9.95746 17.194 10.629 17.8815 11.4575 17.8815ZM18.4575 17.8815C19.2859 17.8815 19.9575 17.194 19.9575 16.3459C19.9575 15.4978 19.2859 14.8103 18.4575 14.8103C17.629 14.8103 16.9575 15.4978 16.9575 16.3459C16.9575 17.194 17.629 17.8815 18.4575 17.8815ZM11.7348 19.503C11.505 19.3462 11.1946 19.4097 11.0414 19.6449C10.8883 19.8802 10.9503 20.198 11.1801 20.3548C12.2682 21.0973 13.6128 21.4686 14.9575 21.4686C16.3021 21.4686 17.6467 21.0973 18.7348 20.3548C18.9646 20.198 19.0267 19.8802 18.8735 19.6449C18.7203 19.4097 18.4099 19.3462 18.1801 19.503C17.26 20.1309 16.1087 20.4449 14.9575 20.4449C14.2747 20.4449 13.592 20.3345 12.9575 20.1137C12.522 19.9621 12.1093 19.7585 11.7348 19.503Z" fill="white"/>
<defs>
<linearGradient id="paint0_linear_1390_130" x1="25.1425" y1="22.7028" x2="4.75589" y2="23.3159" gradientUnits="userSpaceOnUse">
<stop stop-color="#2E90FA"/>
<stop offset="1" stop-color="#3271DD"/>
</linearGradient>
</defs>
</svg>
