<svg width="29" height="29" viewBox="0 0 29 29" fill="none" xmlns="http://www.w3.org/2000/svg">
<rect x="0.260315" width="28.7053" height="28.7053" rx="7" fill="url(#paint0_linear_1390_136)"/>
<path fill-rule="evenodd" clip-rule="evenodd" d="M9.15147 7H20.8485C22.0368 7 23 7.96325 23 9.15147V20.8485C23 22.0368 22.0368 23 20.8485 23H9.15147C7.96325 23 7 22.0368 7 20.8485V9.15147C7 7.96325 7.96325 7 9.15147 7ZM15.7359 15.0001C15.7359 16.6604 14.39 18.0063 12.7297 18.0063C11.0695 18.0063 9.72357 16.6604 9.72357 15.0001C9.72357 13.3399 11.0695 11.994 12.7297 11.994C14.39 11.994 15.7359 13.3399 15.7359 15.0001ZM17.4441 17.7778C18.1959 17.7778 18.8053 16.5264 18.8053 14.9828C18.8053 13.4392 18.1959 12.1878 17.4441 12.1878C16.6924 12.1878 16.0829 13.4392 16.0829 14.9828C16.0829 16.5264 16.6924 17.7778 17.4441 17.7778ZM20.2764 14.9828C20.2764 16.3779 20.0378 17.5088 19.7435 17.5088C19.4492 17.5088 19.2106 16.3779 19.2106 14.9828C19.2106 13.5877 19.4492 12.4568 19.7435 12.4568C20.0378 12.4568 20.2764 13.5877 20.2764 14.9828Z" fill="white"/>
<defs>
<linearGradient id="paint0_linear_1390_136" x1="24.6543" y1="22.1813" x2="4.736" y2="22.7803" gradientUnits="userSpaceOnUse">
<stop stop-color="#2E90FA"/>
<stop offset="1" stop-color="#3271DD"/>
</linearGradient>
</defs>
</svg>
