<svg width="288" height="48" viewBox="0 0 288 48" fill="none" xmlns="http://www.w3.org/2000/svg">
<g clip-path="url(#clip0_2165_6362)">
<path d="M66.4549 10.2673L80.7181 31.3702V10.2673H84.7951V38.2481H81.1036L66.9188 17.2642V38.2481H62.8418V10.2673H66.4549Z" fill="white"/>
<path d="M101.391 38.9551C98.928 38.9551 96.9287 38.6776 95.3868 38.1292C93.8448 37.5808 92.6426 36.7615 91.7736 35.6714C90.9046 34.5878 90.3166 33.2334 90.003 31.6213C89.6893 30.0092 89.5391 28.146 89.5391 26.0185V22.4441C89.5391 20.429 89.6893 18.6186 89.9834 17.0198C90.2839 15.4209 90.8589 14.0664 91.7148 12.9498C92.5707 11.8398 93.7664 10.9875 95.3083 10.3929C96.8503 9.80488 98.8758 9.50757 101.391 9.50757C103.907 9.50757 105.854 9.78506 107.396 10.3334C108.938 10.8818 110.14 11.7011 111.009 12.7913C111.878 13.8814 112.466 15.2292 112.78 16.8414C113.093 18.4535 113.243 20.3167 113.243 22.4441V26.0185C113.243 28.0337 113.093 29.844 112.799 31.4429C112.499 33.0418 111.924 34.3962 111.068 35.5128C110.212 36.6294 109.016 37.4751 107.474 38.0697C105.932 38.6643 103.907 38.9551 101.391 38.9551ZM101.391 35.3807C102.946 35.3807 104.207 35.2683 105.181 35.0437C106.154 34.8191 106.925 34.3698 107.494 33.6893C108.062 33.0087 108.454 32.0441 108.657 30.802C108.866 29.5599 108.97 27.9147 108.97 25.8732V22.6093C108.97 20.5941 108.866 18.9622 108.657 17.7135C108.448 16.4714 108.062 15.5067 107.494 14.8262C106.925 14.1457 106.154 13.6832 105.181 13.452C104.207 13.2207 102.946 13.0952 101.391 13.0952C99.8362 13.0952 98.5752 13.2075 97.6017 13.4321C96.6282 13.6568 95.8572 14.1061 95.2887 14.7866C94.7203 15.4671 94.3283 16.4317 94.1257 17.6738C93.9167 18.916 93.8121 20.5611 93.8121 22.6027V25.8666C93.8121 27.8817 93.9167 29.5136 94.1257 30.7557C94.3348 31.9979 94.7203 32.9625 95.2887 33.643C95.8572 34.3235 96.6282 34.7794 97.6017 35.0173C98.5752 35.2551 99.8362 35.3741 101.391 35.3741V35.3807Z" fill="white"/>
<path d="M132.988 30.2272H121.599L118.725 38.2415H114.608L125.18 10.2607H129.688L140.26 38.2415H135.908L132.994 30.2272H132.988ZM122.847 26.6924H131.707L127.277 14.4298L122.847 26.6924Z" fill="white"/>
<path d="M165.591 10.2673V38.2481H161.514V25.7938H147.722V38.2481H143.645V10.2673H147.722V22.0939H161.514V10.2673H165.591Z" fill="white"/>
<path d="M171.922 19.7352H169.394L171.687 13.8021C170.831 13.4321 170.406 12.7185 170.406 11.6416C170.406 10.7232 170.641 10.0625 171.105 9.65948C171.569 9.25645 172.197 9.05164 172.974 9.05164C173.83 9.05164 174.47 9.27627 174.895 9.71894C175.32 10.1616 175.535 10.7827 175.535 11.5689C175.535 12.0909 175.431 12.6525 175.222 13.2405C175.013 13.8285 174.666 14.5817 174.17 15.5001L171.916 19.7418L171.922 19.7352Z" fill="white"/>
<path d="M192.053 22.6423C193.268 22.8538 194.294 23.1445 195.123 23.5277C195.953 23.9109 196.62 24.3998 197.123 25.001C197.626 25.6023 197.992 26.3224 198.214 27.1615C198.436 28.0006 198.547 28.9851 198.547 30.1083V30.7756C198.547 32.0309 198.377 33.1343 198.044 34.0791C197.704 35.0239 197.136 35.8101 196.332 36.4378C195.529 37.0655 194.47 37.5412 193.144 37.8517C191.824 38.1688 190.177 38.3208 188.211 38.3208H184.696C183.154 38.3208 181.18 38.2944 178.77 38.2415L179.469 34.5482C180.508 34.5746 181.416 34.5944 182.206 34.6076C182.997 34.6209 183.729 34.6275 184.402 34.6275H188.211C189.478 34.6275 190.524 34.568 191.34 34.4491C192.157 34.3301 192.797 34.1187 193.261 33.8214C193.725 33.5241 194.045 33.1145 194.215 32.6057C194.385 32.097 194.47 31.4495 194.47 30.6632C194.47 29.9827 194.424 29.4079 194.333 28.9322C194.241 28.4631 194.058 28.0601 193.791 27.7363C193.516 27.4126 193.124 27.1417 192.608 26.9303C192.092 26.7189 191.406 26.5405 190.55 26.3819L185.303 25.5164C184.01 25.305 182.938 25.001 182.095 24.5914C181.252 24.1884 180.592 23.6862 180.115 23.0982C179.639 22.5102 179.305 21.8164 179.122 21.017C178.939 20.2176 178.848 19.3058 178.848 18.2883V17.5417C178.848 16.4185 179.024 15.401 179.371 14.4959C179.723 13.5907 180.292 12.8177 181.082 12.1768C181.873 11.5359 182.912 11.047 184.193 10.7034C185.473 10.3599 187.061 10.1947 188.956 10.1947H192.804C193.451 10.1947 194.156 10.2013 194.921 10.2145C195.685 10.2277 196.613 10.2476 197.698 10.274L196.999 13.9673C195.156 13.9145 193.595 13.888 192.294 13.888H188.603C187.466 13.888 186.525 13.9475 185.787 14.0664C185.048 14.1853 184.467 14.3968 184.036 14.6941C183.605 14.9914 183.317 15.3878 183.16 15.8701C183.003 16.3524 182.925 16.9669 182.925 17.7003C182.925 18.3279 182.971 18.8631 183.062 19.3124C183.154 19.7617 183.33 20.1383 183.585 20.4488C183.846 20.7659 184.219 21.0236 184.715 21.235C185.205 21.4465 185.852 21.6182 186.656 21.7438L192.059 22.6489L192.053 22.6423Z" fill="white"/>
<path d="M228.504 30.8218H217.776L215.208 38.2481H210.04L220.337 10.2673H226.244L236.541 38.2481H231.098L228.491 30.8218H228.504ZM219.181 26.5801H227.106L223.14 15.183L219.174 26.5801H219.181Z" fill="white"/>
<path d="M250.151 27.9081H244.786V38.2415H239.618V10.2673H250.386C253.855 10.2673 256.39 10.9016 257.984 12.1702C259.579 13.4387 260.376 15.5463 260.376 18.4799V19.6559C260.376 21.7239 259.938 23.3691 259.056 24.5847C258.174 25.8004 256.867 26.6726 255.129 27.1945L261.617 38.2348H255.868L250.157 27.9015L250.151 27.9081ZM255.201 18.949C255.201 18.057 255.116 17.3368 254.946 16.7885C254.776 16.2401 254.502 15.804 254.13 15.4935C253.751 15.1763 253.248 14.9715 252.614 14.8658C251.98 14.7601 251.196 14.7073 250.262 14.7073H244.78V23.5078H250.262C251.196 23.5078 251.98 23.4483 252.614 23.3294C253.248 23.2105 253.751 22.9925 254.13 22.6819C254.502 22.3648 254.776 21.9353 254.946 21.3869C255.116 20.8386 255.201 20.1184 255.201 19.2265V18.949Z" fill="white"/>
<path d="M269.967 22.1732L280.696 10.2673H286.641L274.554 23.5078L288 38.2415H281.199L269.967 25.589V38.2415H264.76V10.2673H269.967V22.1732Z" fill="white"/>
<path d="M41.0971 6.91755L45.0108 2.95995C46.0889 1.86979 45.3244 0 43.8021 0H33.5311C33.0737 0 32.6425 0.184997 32.3223 0.508741L10.271 22.8074C9.19295 23.8976 7.3439 23.1246 7.3439 21.5851V8.06717C7.3439 7.60468 7.16096 7.16862 6.84081 6.84487L2.92711 2.88727C1.84904 1.79711 0 2.57013 0 4.10957V39.5034C0 40.4614 0.764445 41.2344 1.71184 41.2344C2.1692 41.2344 2.60042 41.0494 2.92057 40.7257L35.3605 7.93503C35.6807 7.61129 36.1184 7.42629 36.5692 7.42629H39.8818C40.3392 7.42629 40.7704 7.24129 41.0906 6.91755H41.0971Z" fill="white"/>
<path d="M15.152 47.4912L37.2034 25.1925C38.2814 24.1024 40.1305 24.8754 40.1305 26.4148V38.8426C40.1305 39.8006 39.366 40.5737 38.4186 40.5737H31.2381C30.7807 40.5737 30.3495 40.7587 30.0293 41.0824L26.1156 45.04C25.0376 46.1302 25.802 47.9999 27.3244 47.9999H45.7625C46.7099 47.9999 47.4744 47.2269 47.4744 46.2689V8.49658C47.4744 6.95053 45.6319 6.17751 44.5473 7.27428L7.19397 45.04C6.1159 46.1302 6.88035 47.9999 8.4027 47.9999H13.9368C14.3941 47.9999 14.8254 47.8149 15.1455 47.4912H15.152Z" fill="white"/>
</g>
<defs>
<clipPath id="clip0_2165_6362">
<rect width="288" height="48" fill="white"/>
</clipPath>
</defs>
</svg>
