<svg width="30" height="30" viewBox="0 0 30 30" fill="none" xmlns="http://www.w3.org/2000/svg">
<rect x="0.414856" width="29.3801" height="29.3801" rx="7" fill="url(#paint0_linear_1390_121)"/>
<path d="M23.3375 10.4168V12.9269C23.3375 12.9269 22.1567 12.8803 21.2822 12.6564C20.0617 12.3432 19.2769 11.8628 19.2769 11.8628C19.2769 11.8628 18.7354 11.5202 18.6916 11.4959V18.1135C18.6916 18.4819 18.5914 19.4024 18.286 20.1694C17.8872 21.1737 17.2719 21.8326 17.1588 21.9673C17.1588 21.9673 16.41 22.8581 15.0901 23.4579C13.9005 23.999 12.8556 23.9853 12.5429 23.999C12.5429 23.999 10.7371 24.071 9.1114 23.0072L9.10328 23.0014C8.93165 22.834 8.77008 22.6572 8.61939 22.472C8.10061 21.835 7.78261 21.0817 7.7027 20.8667C7.70256 20.8658 7.70256 20.8649 7.7027 20.864C7.57412 20.4905 7.30398 19.5935 7.3409 18.7247C7.4062 17.1919 7.94161 16.251 8.08317 16.0153C8.45808 15.3726 8.94569 14.7975 9.52431 14.3157C10.0349 13.8999 10.6137 13.5691 11.2368 13.3369C11.9105 13.0641 12.6318 12.918 13.3622 12.9062V15.4472C13.3622 15.4472 12.0261 15.0204 10.9569 15.7761C10.2094 16.3352 9.8127 16.8806 9.69589 17.8547C9.69102 18.5716 9.87314 19.5861 10.8722 20.2626C10.9887 20.337 11.1031 20.403 11.2153 20.4607C11.3898 20.6892 11.6023 20.8883 11.844 21.05C12.8199 21.6721 13.6376 21.7156 14.6833 21.3115C15.3806 21.0414 15.9054 20.4325 16.1488 19.7579C16.3017 19.3366 16.2997 18.9126 16.2997 18.4741V6H18.7333C18.8339 6.57594 19.1122 7.3958 19.848 8.20783C20.1431 8.51444 20.4756 8.78551 20.8381 9.01516C20.9452 9.12675 21.4927 9.67841 22.1957 10.0171C22.5591 10.1921 22.9422 10.3263 23.3375 10.4168Z" fill="white"/>
<defs>
<linearGradient id="paint0_linear_1390_121" x1="25.3823" y1="22.7028" x2="4.99576" y2="23.3159" gradientUnits="userSpaceOnUse">
<stop stop-color="#2E90FA"/>
<stop offset="1" stop-color="#3271DD"/>
</linearGradient>
</defs>
</svg>
