<svg width="30" height="30" viewBox="0 0 30 30" fill="none" xmlns="http://www.w3.org/2000/svg">
<rect x="0.03479" width="29.3801" height="29.3801" rx="7" fill="url(#paint0_linear_1390_116)"/>
<path d="M17.0444 9.09404V9.09155H17.6915L17.928 9.13877C18.0856 9.16943 18.2287 9.20961 18.3573 9.25931C18.4859 9.30902 18.6103 9.36702 18.7306 9.43329C18.8509 9.49956 18.96 9.56709 19.0579 9.63584C19.1549 9.70378 19.2421 9.77586 19.3192 9.85207C19.3955 9.92911 19.5146 9.949 19.6763 9.91172C19.8381 9.87444 20.0123 9.82266 20.199 9.75638C20.3856 9.69011 20.5702 9.61555 20.7527 9.5327C20.9353 9.44985 21.0464 9.39725 21.0862 9.37488C21.1252 9.35169 21.146 9.33927 21.1485 9.3376L21.1509 9.33387L21.1634 9.32766L21.1758 9.32145L21.1883 9.31523L21.2007 9.30902L21.2032 9.30529L21.2069 9.30281L21.2107 9.30032L21.2132 9.29659L21.2256 9.29287L21.238 9.29038L21.2356 9.30902L21.2318 9.32766L21.2256 9.3463L21.2194 9.36494L21.2132 9.37737L21.2069 9.38979L21.2007 9.40843C21.1966 9.42086 21.1924 9.43743 21.1883 9.45814C21.1841 9.47886 21.1447 9.56169 21.0701 9.70668C20.9954 9.85166 20.9021 9.9987 20.7901 10.1478C20.6781 10.2969 20.5777 10.4096 20.4889 10.4858C20.3993 10.5629 20.34 10.6167 20.311 10.6474C20.2819 10.6789 20.2467 10.7078 20.2052 10.7344L20.143 10.7754L20.1305 10.7816L20.1181 10.7878L20.1156 10.7915L20.1119 10.794L20.1081 10.7965L20.1057 10.8002L20.0932 10.8064L20.0808 10.8127L20.0783 10.8164L20.0745 10.8189L20.0708 10.8214L20.0683 10.8251L20.0658 10.8288L20.0621 10.8313L20.0584 10.8338L20.0559 10.8375H20.1181L20.4665 10.7629C20.6988 10.7132 20.9207 10.6532 21.1323 10.5828L21.4683 10.4709L21.5056 10.4585L21.5243 10.4523L21.5367 10.4461L21.5491 10.4399L21.5616 10.4336L21.574 10.4274L21.5989 10.4237L21.6238 10.4212V10.4461L21.6176 10.4486L21.6114 10.4523L21.6089 10.456L21.6051 10.4585L21.6014 10.461L21.5989 10.4647L21.5964 10.4684L21.5927 10.4709L21.589 10.4734L21.5865 10.4771L21.584 10.4809L21.5803 10.4833L21.574 10.4958L21.5678 10.5082L21.5641 10.5107C21.5624 10.5132 21.5098 10.5836 21.406 10.7219C21.3023 10.8611 21.2464 10.9315 21.238 10.9332C21.2298 10.9357 21.2181 10.9481 21.2032 10.9705C21.1891 10.9937 21.1012 11.086 20.9394 11.2476C20.7776 11.4091 20.6192 11.5529 20.464 11.6788C20.3081 11.8056 20.2293 11.9613 20.2276 12.146C20.2251 12.33 20.2156 12.5379 20.199 12.7699C20.1824 13.0018 20.1513 13.2524 20.1057 13.5217C20.06 13.7909 19.9895 14.0954 19.8941 14.4351C19.7987 14.7747 19.6826 15.1061 19.5457 15.4292C19.4088 15.7523 19.2657 16.0422 19.1164 16.2991C18.967 16.5559 18.8301 16.7734 18.7057 16.9515C18.5813 17.1296 18.4548 17.2973 18.3262 17.4547C18.1976 17.6122 18.035 17.7894 17.8384 17.9866C17.6409 18.183 17.5331 18.2907 17.5148 18.3097C17.4958 18.3279 17.4145 18.3959 17.2709 18.5135C17.1282 18.632 16.9748 18.7504 16.8105 18.8689C16.6471 18.9866 16.4969 19.0847 16.36 19.1634C16.2231 19.2421 16.0581 19.332 15.8648 19.4331C15.6723 19.535 15.4641 19.6294 15.2401 19.7164C15.0161 19.8034 14.7796 19.8842 14.5308 19.9587C14.2819 20.0333 14.0413 20.0913 13.809 20.1327C13.5767 20.1741 13.3133 20.2093 13.0188 20.2383L12.5771 20.2818V20.288H11.7682V20.2818L11.6624 20.2756C11.5919 20.2715 11.5339 20.2673 11.4882 20.2632C11.4426 20.2591 11.2705 20.2363 10.9718 20.1948C10.6731 20.1534 10.4388 20.112 10.2687 20.0706C10.0987 20.0292 9.84563 19.9504 9.50964 19.8345C9.17365 19.7185 8.8862 19.6013 8.64727 19.4828C8.40919 19.3651 8.25986 19.2906 8.19929 19.2591C8.13956 19.2285 8.07237 19.1904 7.9977 19.1448L7.88571 19.0764L7.88323 19.0727L7.87948 19.0702L7.87575 19.0677L7.87326 19.064L7.86082 19.0578L7.84837 19.0516L7.8459 19.0479L7.84215 19.0454L7.83842 19.0429L7.83593 19.0392L7.83345 19.0354L7.82971 19.0329H7.82349V19.0081L7.83593 19.0106L7.84837 19.0143L7.90437 19.0205C7.9417 19.0247 8.04333 19.0309 8.20925 19.0392C8.37518 19.0474 8.55146 19.0474 8.73812 19.0392C8.92477 19.0309 9.11559 19.0122 9.31054 18.9832C9.5055 18.9542 9.73571 18.9045 10.0012 18.8341C10.2667 18.7637 10.5106 18.68 10.7329 18.5831C10.9544 18.4853 11.112 18.4124 11.2058 18.3644C11.2987 18.3172 11.4405 18.2293 11.6313 18.1009L11.9175 17.9083L11.92 17.9046L11.9238 17.9021L11.9275 17.8996L11.93 17.8959L11.9325 17.8922L11.9362 17.8897L11.94 17.8872L11.9424 17.8835L11.9549 17.8797L11.9673 17.8773L11.9698 17.8648L11.9735 17.8524L11.9773 17.8499L11.9798 17.8462L11.8802 17.84C11.8138 17.8358 11.7495 17.8317 11.6873 17.8275C11.6251 17.8234 11.5276 17.8048 11.3949 17.7716C11.2622 17.7385 11.1191 17.6888 10.9656 17.6225C10.8121 17.5562 10.6628 17.4775 10.5176 17.3864C10.3724 17.2953 10.2675 17.2195 10.2028 17.159C10.1389 17.0993 10.0559 17.0148 9.95389 16.9055C9.85268 16.7953 9.76474 16.6822 9.69008 16.5662C9.61541 16.4503 9.54407 16.3164 9.47605 16.1649L9.37276 15.9387L9.36653 15.92L9.36031 15.9014L9.35658 15.889L9.35409 15.8766L9.37276 15.879L9.39142 15.8828L9.52831 15.9014C9.61957 15.9138 9.76267 15.918 9.95762 15.9138C10.1526 15.9097 10.2874 15.9014 10.362 15.889C10.4367 15.8766 10.4823 15.8683 10.4989 15.8641L10.5238 15.8579L10.5549 15.8517L10.586 15.8455L10.5885 15.8418L10.5923 15.8393L10.596 15.8368L10.5985 15.8331L10.5736 15.8268L10.5487 15.8206L10.5238 15.8144L10.4989 15.8082L10.474 15.802C10.4575 15.7979 10.4284 15.7896 10.3869 15.7771C10.3455 15.7647 10.2335 15.7191 10.051 15.6404C9.86845 15.5617 9.72326 15.4851 9.61541 15.4105C9.50729 15.3358 9.4042 15.254 9.3068 15.1657C9.20974 15.0763 9.10315 14.9611 8.98699 14.8203C8.87086 14.6794 8.76716 14.5158 8.6759 14.3294C8.58464 14.143 8.5162 13.9649 8.47057 13.7951C8.42512 13.6262 8.39514 13.4536 8.38099 13.2794L8.35858 13.0184L8.37102 13.0209L8.38346 13.0246L8.39591 13.0308L8.40835 13.037L8.4208 13.0433L8.43324 13.0495L8.62612 13.1365C8.75472 13.1945 8.91441 13.2442 9.10521 13.2856C9.29603 13.327 9.41009 13.3498 9.44742 13.3539L9.50342 13.3601H9.61541L9.61294 13.3564L9.60919 13.3539L9.60546 13.3514L9.60297 13.3477L9.60049 13.344L9.59675 13.3415L9.59301 13.339L9.59053 13.3353L9.57808 13.3291L9.56564 13.3229L9.56316 13.3191L9.55942 13.3166L9.55568 13.3142L9.55319 13.3104L9.54075 13.3042L9.52831 13.298L9.52583 13.2943C9.52334 13.2926 9.48766 13.2661 9.4188 13.2147C9.35077 13.1626 9.27943 13.095 9.20476 13.0122C9.1301 12.9293 9.05544 12.8424 8.98077 12.7512C8.90597 12.6599 8.83935 12.5622 8.78167 12.4592C8.72361 12.3556 8.66221 12.2239 8.5975 12.064C8.53362 11.905 8.48509 11.7447 8.45191 11.5831C8.41873 11.4216 8.40006 11.2621 8.39591 11.1047C8.39176 10.9473 8.39591 10.8127 8.40835 10.7008C8.4208 10.589 8.44568 10.4626 8.48301 10.3218C8.52035 10.181 8.57428 10.0318 8.64479 9.87444L8.75056 9.63833L8.75678 9.61969L8.763 9.60105L8.76675 9.59856L8.76923 9.59484L8.77171 9.59111L8.77545 9.58862L8.77919 9.59111L8.78167 9.59484L8.78416 9.59856L8.78789 9.60105L8.79164 9.60353L8.79411 9.60726L8.7966 9.61099L8.80034 9.61348L8.80656 9.6259L8.81278 9.63833L8.81652 9.64081L8.819 9.64454L8.98699 9.83094C9.09899 9.95521 9.23173 10.094 9.3852 10.2472C9.53868 10.4005 9.62371 10.48 9.6403 10.4858C9.6569 10.4925 9.67763 10.5115 9.70252 10.543C9.72741 10.5737 9.81037 10.647 9.9514 10.7629C10.0924 10.8789 10.277 11.0136 10.5052 11.1668C10.7333 11.3201 10.9863 11.4713 11.2642 11.6204C11.5422 11.7695 11.8408 11.9041 12.1602 12.0243C12.4796 12.1444 12.7036 12.2231 12.8322 12.2604C12.9608 12.2977 13.1806 12.3453 13.4917 12.4033C13.8028 12.4613 14.0372 12.4986 14.1948 12.5151C14.3524 12.5317 14.4603 12.5412 14.5183 12.5437L14.6054 12.5462L14.603 12.5275L14.5992 12.5089L14.5743 12.3536C14.5577 12.25 14.5494 12.105 14.5494 11.9186C14.5494 11.7322 14.564 11.5603 14.593 11.4029C14.622 11.2455 14.6656 11.086 14.7236 10.9245C14.7817 10.7629 14.8386 10.6333 14.8941 10.5355C14.9506 10.4386 15.0244 10.328 15.1156 10.2037C15.2069 10.0795 15.3251 9.95107 15.4703 9.81852C15.6155 9.68596 15.7814 9.56791 15.968 9.46435C16.1547 9.3608 16.3269 9.28209 16.4845 9.22825C16.6421 9.1744 16.7748 9.13918 16.8827 9.12262C16.9905 9.10605 17.0444 9.09652 17.0444 9.09404Z" fill="white"/>
<defs>
<linearGradient id="paint0_linear_1390_116" x1="25.0023" y1="22.7028" x2="4.61569" y2="23.3159" gradientUnits="userSpaceOnUse">
<stop stop-color="#2E90FA"/>
<stop offset="1" stop-color="#3271DD"/>
</linearGradient>
</defs>
</svg>
