<svg width="31" height="30" viewBox="0 0 31 30" fill="none" xmlns="http://www.w3.org/2000/svg">
<rect x="0.794922" width="29.3801" height="29.3801" rx="7" fill="url(#paint0_linear_1390_125)"/>
<path d="M15.8515 20.573L12.4277 20.509C11.3192 20.4867 10.2079 20.5312 9.12105 20.3002C7.46775 19.955 7.35063 18.2627 7.22807 16.8431C7.05919 14.8474 7.12457 12.8155 7.44326 10.8364C7.62317 9.72593 8.33118 9.06331 9.42611 8.99121C13.1223 8.72952 16.843 8.76054 20.531 8.88262C20.9205 8.89381 21.3127 8.95498 21.6967 9.02461C23.5925 9.36421 23.6388 11.282 23.7617 12.8964C23.8842 14.5275 23.8325 16.167 23.5982 17.787C23.4103 19.1283 23.0507 20.2531 21.5333 20.3617C19.632 20.5037 17.7744 20.618 15.8678 20.5816C15.8679 20.573 15.8569 20.573 15.8515 20.573ZM13.8387 17.1772C15.2714 16.3365 16.6768 15.5098 18.1014 14.6748C16.666 13.8342 15.2632 13.0075 13.8387 12.1725V17.1772Z" fill="white"/>
<defs>
<linearGradient id="paint0_linear_1390_125" x1="25.7624" y1="22.7028" x2="5.37582" y2="23.3159" gradientUnits="userSpaceOnUse">
<stop stop-color="#2E90FA"/>
<stop offset="1" stop-color="#3271DD"/>
</linearGradient>
</defs>
</svg>
